/* XPM */
static char *skFunc[] = {
/* columns rows colors chars-per-pixel */
"16 15 52 1 ",
"  c #1F681F",
". c #1F771F",
"X c #256927",
"o c #237424",
"O c #31782F",
"+ c #3D7C3D",
"@ c #457A45",
"# c #1F861F",
"$ c #1F951F",
"% c #1FA91F",
"& c #1FB01F",
"* c #20A11F",
"= c #208420",
"- c #279D28",
"; c #3E883E",
": c #3E983E",
"> c #2DA529",
", c #3EA83E",
"< c #3BB63D",
"1 c #50844B",
"2 c #43924B",
"3 c #5F8D5F",
"4 c #559C5D",
"5 c #54AA5C",
"6 c #55B75D",
"7 c #6CAD63",
"8 c #73BA6E",
"9 c #67AD70",
"0 c #6CB575",
"q c #45C245",
"w c #5FCB5F",
"e c #63C15C",
"r c #77CB74",
"t c #81BF78",
"y c #7AAA83",
"u c #82A984",
"i c #8DB984",
"p c #80CF80",
"a c #80D080",
"s c #94CC94",
"d c #99D6A2",
"f c #B4CEAB",
"g c #B4D6AC",
"h c #C7DABE",
"j c #C5E9C6",
"k c #DAE8DA",
"l c #DBF3DB",
"z c #E0E9E0",
"x c #E4F5E4",
"c c #F1F8ED",
"v c #ECF8F1",
"b c #FBFDFB",
/* pixels */
"bxlllllllllllllb",
"lwqqqqqqqqqqqqwl",
"l<&&&&&&&&&&&&6j",
"l<<apppr**<je&<l",
"l<6bbbbl$%dc>*,l",
"l,6bg---$>cg$*,k",
"k,5blss8$5bt$$,k",
"k:5bbccf$0b7##:k",
"k:5bg#=.#9b7=#:k",
"k;4bf..X.2bio.;k",
"k;4bf.  ..kh..;k",
"k;o;O     yv+ ;k",
"k@        Xu1 +k",
"k3@@@@@@@@@@@@3z",
"bzkkkzkkkkkkkkzb"
};
